<svg 
  enable-background="new 0 0 512 512" 
  viewBox="0 0 512 512" 
  fill="rgb(192, 132, 252)"
  xmlns="http://www.w3.org/2000/svg"
  >
    <g id="_x30_4_Recipe">
      <g>
        <path d="m479.575 388.179h-46.858v-314.04c0-29.933-24.217-54.285-53.978-54.285-36.519 0-277.327 0-314.716 0-27.172 0-49.276 22.23-49.276 49.552v31.356c0 9.783 7.929 17.744 17.672 17.744h66.258v333.162c0 22.32 18.063 40.48 40.266 40.48h311.979c25.545 0 46.33-20.899 46.33-46.587v-39.64c0-9.784-7.929-17.742-17.677-17.742zm-380.897-284.296h-66.258c-1.68 0-3.051-1.402-3.051-3.122v-31.356c0-19.26 15.545-34.93 34.654-34.93s34.654 15.671 34.654 34.93v34.478zm65.91 302.037v45.746c0 14.26-11.504 25.859-25.645 25.859s-25.644-11.599-25.644-25.859v-382.261c0-13.617-5.494-25.965-14.366-34.93h279.806c21.704 0 39.357 17.794 39.357 39.664v314.04h-235.836c-9.743 0-17.672 7.958-17.672 17.741zm318.043 39.64c0 17.625-14.226 31.965-31.708 31.965h-281.023c5.811-7.018 9.31-16.035 9.31-25.859v-45.746c0-1.721 1.371-3.12 3.051-3.12h297.315c1.685 0 3.056 1.399 3.056 3.12v39.64z"/>
        <path d="m170.671 111.132h194.123c4.036 0 7.311-3.272 7.311-7.311s-3.275-7.311-7.311-7.311h-194.123c-4.036 0-7.311 3.272-7.311 7.311s3.275 7.311 7.311 7.311z"/>
        <path d="m170.671 168.906h194.123c4.036 0 7.311-3.272 7.311-7.311 0-4.038-3.275-7.311-7.311-7.311h-194.123c-4.036 0-7.311 3.272-7.311 7.311s3.275 7.311 7.311 7.311z"/>
        <path d="m170.671 226.682h194.123c4.036 0 7.311-3.272 7.311-7.311s-3.275-7.311-7.311-7.311h-194.123c-4.036 0-7.311 3.272-7.311 7.311s3.275 7.311 7.311 7.311z"/>
        <path d="m170.671 284.456h194.123c4.036 0 7.311-3.272 7.311-7.311 0-4.038-3.275-7.311-7.311-7.311h-194.123c-4.036 0-7.311 3.272-7.311 7.311s3.275 7.311 7.311 7.311z"/>
        <path d="m372.105 334.919c0-4.038-3.275-7.311-7.311-7.311h-194.123c-4.036 0-7.311 3.272-7.311 7.311s3.275 7.311 7.311 7.311h194.123c4.036 0 7.311-3.272 7.311-7.311z"/>
      </g>
    </g>
  <g id="Layer_1"/>
</svg>